#!OML:ASF X:\für Bonn\!DataBase\2005_08_10_Bjorn_Final\c3d\bjorn.ASF
:FULLY-SPECIFIED
:DEGREES
395
root 0.112978 2.2192 10.0519 -2045.27 -16.4844 182.709
lowerback 41.528 5.93014 8.55892
upperback 27.1498 -0.916212 2.83901
thorax 11.3198 -4.76215 -2.05183
lowerneck 17.0647 10.8113 3.10178
upperneck 9.36312 13.733 -6.93919
head 0.969222 6.54802 -3.32776
rclavicle -8.44835e-014 7.11649e-014
rhumerus -57.7895 7.78813 -84.0291
rradius 74.2175
rwrist -62.3539
rhand -40.9161 -23.2182
rfingers 7.12502
rthumb -13.8508 -52.737
lclavicle -8.44835e-014 7.11649e-014
lhumerus -73.3274 -43.8093 104.469
lradius 80.9666
lwrist 60.8653
lhand -18.454 31.9279
lfingers 7.12502
lthumb 7.83219 781.763
rfemur -431.751 -28.421 354.59
rtibia 101.808
rfoot 36.8978 4.65612
rtoes -1.692
lfemur -69.1092 -1.68127 -25.4237
ltibia 88.5782
lfoot 15.4138 3.42891
ltoes -8.57348
396
root 0.10417 2.2193 10.0491 -2045.2 -16.433 182.816
lowerback 41.4866 5.98175 8.38736
upperback 27.0856 -0.869032 2.84452
thorax 11.2366 -4.75009 -1.96173
lowerneck 17.3604 10.8005 3.06659
upperneck 9.0376 13.7056 -6.94604
head 0.808118 6.54702 -3.35406
rclavicle 3.43897e-014 -1.03368e-014
rhumerus -57.1441 8.07126 -83.756
rradius 74.6935
rwrist -62.1306
rhand -41.0842 -22.9503
rfingers 7.12502
rthumb -14.0127 -52.458
lclavicle 3.43897e-014 -1.03368e-014
lhumerus -73.0964 -44.7344 103.735
lradius 81.8162
lwrist 59.9238
lhand -16.7874 30.0025
lfingers 7.12502
lthumb 9.44048 779.771
rfemur -431.787 -28.2024 354.595
rtibia 101.822
rfoot 36.8922 4.60511
rtoes -1.35425
lfemur -68.9259 -1.70691 -25.2687
ltibia 88.3459
lfoot 15.4234 3.39494
ltoes -9.25785
397
root 0.0959828 2.21864 10.0464 -2045.14 -16.379 182.928
lowerback 41.4097 6.02987 8.22498
upperback 27.0422 -0.832849 2.84968
thorax 11.1902 -4.7433 -1.87837
lowerneck 17.6442 10.7907 2.9929
upperneck 8.72415 13.6717 -6.91081
head 0.646661 6.54009 -3.35889
rclavicle -8.15017e-015 -7.95139e-015
rhumerus -56.4185 8.28089 -83.4355
rradius 75.1536
rwrist -61.9021
rhand -41.145 -22.4339
rfingers 7.12502
rthumb -14.0714 -51.9375
lclavicle -8.15017e-015 -7.95139e-015
lhumerus -72.6696 -45.6855 102.884
lradius 82.5886
lwrist 58.3443
lhand -15.1947 28.1227
lfingers 7.12502
lthumb 10.977 777.816
rfemur -431.807 -27.9913 354.597
rtibia 101.841
rfoot 36.8841 4.44864
rtoes -0.830298
lfemur -68.7405 -1.75115 -25.0967
ltibia 88.1267
lfoot 15.4628 3.47369
ltoes -10.0063
398
root 0.087858 2.21817 10.0435 -2045.09 -16.3247 183.053
lowerback 41.2765 6.07905 8.08372
upperback 27.0322 -0.801802 2.85286
thorax 11.2039 -4.7365 -1.81332
lowerneck 17.9329 10.7561 2.98561
upperneck 8.36462 13.6207 -6.94011
head 0.477266 6.53032 -3.39879
rclavicle 4.77083e-015 3.49861e-014
rhumerus -55.5894 8.42436 -83.0817
rradius 75.6224
rwrist -61.638
rhand -41.0041 -21.654
rfingers 7.12502
rthumb -13.9356 -51.167
lclavicle 4.77083e-015 3.49861e-014
lhumerus -71.9681 -46.685 101.823
lradius 83.2747
lwrist 56.3929
lhand -13.8724 26.1404
lfingers 7.12502
lthumb 12.2522 775.761
rfemur -431.832 -27.7854 354.611
rtibia 101.856
rfoot 36.8622 4.39898
rtoes -0.606262
lfemur -68.57 -1.79002 -24.9227
ltibia 87.9236
lfoot 15.584 3.64117
ltoes -10.7303
399
root 0.0797862 2.21746 10.0416 -2045.03 -16.2572 183.151
lowerback 41.1502 6.13089 7.92375
upperback 27.0078 -0.76584 2.84689
thorax 11.1959 -4.72745 -1.74751
lowerneck 18.2173 10.7331 2.94499
upperneck 8.03795 13.5767 -6.90376
head 0.312772 6.51982 -3.41018
rclavicle -2.56432e-014 2.78299e-014
rhumerus -54.7204 8.51512 -82.6375
rradius 76.1637
rwrist -61.3303
rhand -40.6721 -20.9162
rfingers 7.12502
rthumb -13.6157 -50.4509
lclavicle -2.56432e-014 2.78299e-014
lhumerus -71.0751 -47.6324 100.64
lradius 83.8743
lwrist 54.21
lhand -12.9559 24.0061
lfingers 7.12502
lthumb 13.1358 773.572
rfemur -431.852 -27.5476 354.632
rtibia 101.863
rfoot 36.8244 4.31793
rtoes -0.398921
lfemur -68.4037 -1.81423 -24.7408
ltibia 87.7246
lfoot 15.7685 3.97084
ltoes -11.2744
